<svg xmlns="http://www.w3.org/2000/svg" viewBox="0 0 30.581 30.582">
  <path
    id="Path_1163"
    data-name="Path 1163"
    d="M83.2,163.819a15.285,15.285,0,0,0-6.239,29.242c-.018-.43-.036-.86-.022-1.291.05-1.488.233-2,2.15-10.059a.553.553,0,0,0-.044-.336,5.667,5.667,0,0,1-.149-3.768c.868-2.749,3.985-2.96,4.53-.691.335,1.4-.553,3.239-1.234,5.953-.565,2.24,2.071,3.832,4.324,2.2,2.079-1.507,2.884-5.12,2.731-7.681-.3-5.106-5.9-6.209-9.453-4.565-4.072,1.883-5,6.931-3.159,9.237.233.294.413.473.336.771-.118.462-.224.927-.351,1.386a.491.491,0,0,1-.726.326,4.167,4.167,0,0,1-1.7-1.274c-1.562-1.934-2.008-5.758.056-9a10.807,10.807,0,0,1,10.425-4.6c4.64.527,7.572,3.7,8.121,7.293a12.141,12.141,0,0,1-2.229,8.533c-2.646,3.281-6.934,3.5-8.913,1.485-.152-.154-.274-.335-.424-.519-.022.074-.042.137-.058.2-.95,3.721-1.056,4.547-2.032,6.276-.15.265-.316.519-.479.776a15.292,15.292,0,1,0,4.538-29.9"
    transform="translate(-67.906 -163.819)"
    fill="red"
  />
  <path
    id="Path_1164"
    data-name="Path 1164"
    d="M81.945,187.57c.016-.063.036-.125.058-.2.15.184.271.366.424.519,1.978,2.014,6.266,1.8,8.912-1.484a12.143,12.143,0,0,0,2.23-8.533c-.55-3.6-3.482-6.766-8.121-7.294a10.808,10.808,0,0,0-10.425,4.6c-2.065,3.238-1.619,7.062-.057,9a4.158,4.158,0,0,0,1.7,1.274.491.491,0,0,0,.727-.326c.127-.459.232-.925.35-1.386.077-.3-.1-.477-.336-.77-1.838-2.307-.912-7.355,3.159-9.238,3.553-1.644,9.151-.54,9.454,4.565.153,2.561-.653,6.175-2.731,7.681-2.254,1.635-4.889.043-4.325-2.2.682-2.715,1.57-4.551,1.235-5.954-.545-2.269-3.663-2.058-4.531.691a5.681,5.681,0,0,0,.149,3.768.557.557,0,0,1,.045.335c-1.917,8.062-2.1,8.572-2.15,10.059-.015.432,0,.862.022,1.291a15.145,15.145,0,0,0,1.7.654c.162-.257.329-.511.48-.776.976-1.728,1.081-2.554,2.031-6.276"
    transform="translate(-68.683 -164.726)"
    fill="#fff"
  />
</svg>
