<svg xmlns="http://www.w3.org/2000/svg" viewBox="0 0 23.681 30.581">
  <path
    id="Path_1175"
    data-name="Path 1175"
    d="M17.7,183.731c-.026.088-.05.162-.069.236-1.123,4.4-1.247,5.379-2.4,7.422a22.867,22.867,0,0,1-1.857,2.773c-.078.1-.15.228-.305.2s-.182-.188-.2-.324a23.617,23.617,0,0,1-.242-4.028c.058-1.759.276-2.363,2.543-11.9a.665.665,0,0,0-.053-.4,6.706,6.706,0,0,1-.176-4.456c1.027-3.252,4.713-3.5,5.358-.819.4,1.66-.653,3.832-1.46,7.042-.668,2.649,2.449,4.532,5.114,2.6,2.458-1.782,3.411-6.055,3.23-9.084-.357-6.039-6.978-7.344-11.179-5.4-4.816,2.227-5.911,8.2-3.736,10.924.276.347.488.559.4.911-.14.546-.263,1.1-.414,1.64a.581.581,0,0,1-.86.385,4.926,4.926,0,0,1-2.01-1.507c-1.847-2.286-2.375-6.809.067-10.638,2.7-4.242,7.737-5.959,12.33-5.437,5.486.624,8.954,4.373,9.6,8.625a14.365,14.365,0,0,1-2.636,10.092c-3.129,3.88-8.2,4.137-10.54,1.755-.181-.182-.325-.4-.5-.615"
    transform="translate(-7.794 -163.782)"
    fill="red"
    fill-rule="evenodd"
  />
</svg>
