<svg xmlns="http://www.w3.org/2000/svg" viewBox="0 0 30.581 30.582">
  <path
    id="Path_1159"
    data-name="Path 1159"
    d="M98.487,233.692A15.291,15.291,0,1,1,83.2,218.4a15.291,15.291,0,0,1,15.291,15.291"
    transform="translate(-67.905 -218.401)"
  />
  <path
    id="Path_1160"
    data-name="Path 1160"
    d="M88.673,232.08a7.543,7.543,0,0,0,4.4,1.406v-3.154a4.431,4.431,0,0,1-.924-.1v2.483a7.535,7.535,0,0,1-4.4-1.407v6.437a5.834,5.834,0,0,1-9.08,4.843,5.833,5.833,0,0,0,10-4.075Zm1.139-3.182a4.392,4.392,0,0,1-1.139-2.573v-.406H87.8a4.413,4.413,0,0,0,2.014,2.979m-9.1,11.223a2.668,2.668,0,0,1,2.934-4.156V232.74a5.89,5.89,0,0,0-.923-.053V235.2a2.668,2.668,0,0,0-2.01,4.924"
    transform="translate(-69.366 -219.421)"
    fill="#ee1d52"
    fill-rule="evenodd"
  />
  <path
    id="Path_1161"
    data-name="Path 1161"
    d="M87.488,231.312a7.543,7.543,0,0,0,4.4,1.406v-2.482a6.956,6.956,0,0,1-4.349-4.317h-2.3v12.6a2.669,2.669,0,0,1-4.792,1.606,2.667,2.667,0,0,1,1.2-5.049,2.7,2.7,0,0,1,.81.124v-2.509a5.829,5.829,0,0,0-4.048,9.9,5.834,5.834,0,0,0,9.08-4.843Z"
    transform="translate(-69.105 -219.421)"
    fill="#fff"
    fill-rule="evenodd"
  />
  <path
    id="Path_1162"
    data-name="Path 1162"
    d="M91.741,230.115v-.671a4.4,4.4,0,0,1-2.335-.667,4.407,4.407,0,0,0,2.335,1.338M87.391,225.8c-.021-.12-.037-.241-.048-.362v-.406H84.169v12.6A2.67,2.67,0,0,1,80.3,240a2.669,2.669,0,0,0,4.793-1.605V225.8Zm-5.08,6.769v-.715a5.9,5.9,0,0,0-.8-.054,5.83,5.83,0,0,0-3.247,10.674,5.829,5.829,0,0,1,4.048-9.9"
    transform="translate(-68.96 -219.3)"
    fill="#69c9d0"
    fill-rule="evenodd"
  />
</svg>
