<svg xmlns="http://www.w3.org/2000/svg" viewBox="0 0 37.155 30.581">
  <path
    id="Path_1174"
    data-name="Path 1174"
    d="M37,112.854a15.342,15.342,0,0,1-3.758,1.071c.6-.1,1.492-1.2,1.848-1.638a6.9,6.9,0,0,0,1.247-2.274c.033-.065.056-.146-.009-.2a.216.216,0,0,0-.2.016,19.2,19.2,0,0,1-4.456,1.705.3.3,0,0,1-.308-.082,3.468,3.468,0,0,0-.389-.4,7.857,7.857,0,0,0-2.157-1.322,7.516,7.516,0,0,0-3.31-.533,7.912,7.912,0,0,0-3.14.887,8.092,8.092,0,0,0-2.533,2.069,7.767,7.767,0,0,0-1.513,3.03,8.2,8.2,0,0,0-.08,3.2c.024.179.008.2-.154.179-6.119-.911-11.19-3.1-15.308-7.792-.179-.2-.275-.2-.422.016-1.8,2.7-.928,7.039,1.322,9.171.3.284.609.569.941.828a7.8,7.8,0,0,1-2.954-.828c-.178-.113-.268-.048-.284.155a4.624,4.624,0,0,0,.049.876,7.847,7.847,0,0,0,4.838,6.258,4.567,4.567,0,0,0,.981.3,8.743,8.743,0,0,1-2.9.089c-.211-.041-.292.066-.211.268,1.274,3.475,4.026,4.508,6.087,5.1.276.048.551.048.829.113-.017.025-.034.025-.049.048-.684,1.042-3.053,1.818-4.157,2.2a14.879,14.879,0,0,1-6.313.808c-.34-.05-.411-.046-.5,0s-.012.139.1.226c.43.284.868.537,1.315.78a20.755,20.755,0,0,0,4.22,1.689c7.584,2.094,16.127.555,21.822-5.1,4.473-4.443,6.04-10.572,6.04-16.707,0-.24.283-.373.452-.5a14.791,14.791,0,0,0,2.971-3.089.938.938,0,0,0,.2-.591v-.032c0-.1,0-.068-.152,0"
    transform="translate(0 -109.188)"
    fill="#3cf"
  />
</svg>
