<svg xmlns="http://www.w3.org/2000/svg" viewBox="0 0 30.581 30.582">
  <path
    id="Path_1151"
    data-name="Path 1151"
    d="M98.487,124.528A15.291,15.291,0,1,1,83.2,109.237a15.291,15.291,0,0,1,15.291,15.291"
    transform="translate(-67.905 -109.237)"
    fill="#3cf"
  />
  <path
    id="Path_1152"
    data-name="Path 1152"
    d="M92.763,120.608a6.879,6.879,0,0,1-1.686.481c.271-.045.669-.536.829-.735a3.1,3.1,0,0,0,.56-1.021c.015-.029.025-.066,0-.088a.1.1,0,0,0-.09.008,8.621,8.621,0,0,1-2,.765.134.134,0,0,1-.138-.036,1.561,1.561,0,0,0-.175-.179,3.549,3.549,0,0,0-.969-.593,3.359,3.359,0,0,0-1.486-.239,3.556,3.556,0,0,0-1.409.4,3.629,3.629,0,0,0-1.137.929,3.487,3.487,0,0,0-.678,1.36,3.667,3.667,0,0,0-.036,1.436c.011.08,0,.092-.069.08a10.681,10.681,0,0,1-6.871-3.5c-.08-.092-.124-.092-.189.007a3.483,3.483,0,0,0,.594,4.117c.135.128.273.255.422.372a3.512,3.512,0,0,1-1.326-.372c-.08-.051-.12-.022-.127.069a2.058,2.058,0,0,0,.022.394,3.523,3.523,0,0,0,2.171,2.808,2,2,0,0,0,.441.135,3.959,3.959,0,0,1-1.3.041c-.094-.018-.131.029-.094.12a3.658,3.658,0,0,0,2.732,2.288c.124.022.247.022.372.05-.008.011-.015.011-.022.022a4.329,4.329,0,0,1-1.866.989,6.694,6.694,0,0,1-2.834.363c-.152-.022-.184-.021-.226,0s-.005.062.044.1c.193.128.39.241.589.35a9.366,9.366,0,0,0,1.895.758A10.09,10.09,0,0,0,88.5,130a10.279,10.279,0,0,0,2.711-7.5c0-.107.128-.167.2-.224a6.606,6.606,0,0,0,1.333-1.386.416.416,0,0,0,.088-.265v-.015c0-.044,0-.031-.068,0"
    transform="translate(-69.024 -110.557)"
    fill="#fff"
  />
</svg>
