<svg xmlns="http://www.w3.org/2000/svg" viewBox="0 0 30.581 30.582">
  <path
    id="Path_1165"
    data-name="Path 1165"
    d="M98.487,288.273A15.291,15.291,0,1,1,83.2,272.982a15.291,15.291,0,0,1,15.291,15.291"
    transform="translate(-67.905 -272.982)"
    fill="#00d95f"
  />
  <path
    id="Path_1166"
    data-name="Path 1166"
    d="M76.038,297.893l1.275-4.756a8.807,8.807,0,1,1,3.507,3.475Zm5.019-3.063.3.18a7.15,7.15,0,1,0-2.444-2.423l.184.3-.711,2.655Z"
    transform="translate(-69.009 -273.949)"
    fill="#fff"
  />
  <path
    id="Path_1167"
    data-name="Path 1167"
    d="M89,290.863a1.479,1.479,0,0,0-1.258-.283c-.327.134-.536.646-.747.907a.313.313,0,0,1-.405.087,5.7,5.7,0,0,1-2.843-2.435.349.349,0,0,1,.043-.476,1.925,1.925,0,0,0,.517-.838,1.839,1.839,0,0,0-.231-.993,2.346,2.346,0,0,0-.733-1.1,1,1,0,0,0-1.09.162,2.213,2.213,0,0,0-.768,1.754,2.46,2.46,0,0,0,.069.557,4.61,4.61,0,0,0,.533,1.23,9.683,9.683,0,0,0,.557.848,8.586,8.586,0,0,0,2.418,2.244,7.307,7.307,0,0,0,1.507.717,3.356,3.356,0,0,0,1.755.277,2.125,2.125,0,0,0,1.591-1.183,1.032,1.032,0,0,0,.073-.6c-.091-.416-.654-.663-.991-.864"
    transform="translate(-69.748 -274.698)"
    fill="#fff"
    fill-rule="evenodd"
  />
</svg>
