<svg xmlns="http://www.w3.org/2000/svg" viewBox="0 0 30.506 30.581">
  <path
    id="Path_1176"
    data-name="Path 1176"
    d="M3.846,303.552l2.193-8.18a15.137,15.137,0,1,1,6.03,5.978Zm8.631-5.268.518.309a12.288,12.288,0,1,0-4.2-4.167l.318.522-1.224,4.567Z"
    transform="translate(-3.846 -272.971)"
    fill="#00d95f"
  />
  <path
    id="Path_1177"
    data-name="Path 1177"
    d="M26.139,291.463a2.539,2.539,0,0,0-2.163-.487c-.562.23-.921,1.11-1.284,1.558a.538.538,0,0,1-.7.151A9.8,9.8,0,0,1,17.1,288.5a.6.6,0,0,1,.076-.818,3.317,3.317,0,0,0,.889-1.442,3.153,3.153,0,0,0-.4-1.707,4.039,4.039,0,0,0-1.26-1.9,1.727,1.727,0,0,0-1.875.278,3.808,3.808,0,0,0-1.32,3.016,4.277,4.277,0,0,0,.118.957A7.9,7.9,0,0,0,14.254,289a16.664,16.664,0,0,0,.958,1.457,14.8,14.8,0,0,0,4.157,3.86,12.568,12.568,0,0,0,2.592,1.233,5.762,5.762,0,0,0,3.017.477,3.656,3.656,0,0,0,2.736-2.035,1.773,1.773,0,0,0,.127-1.039c-.156-.716-1.124-1.141-1.7-1.487"
    transform="translate(-5.117 -274.259)"
    fill="#00d95f"
    fill-rule="evenodd"
  />
</svg>
