<svg xmlns="http://www.w3.org/2000/svg" viewBox="0 0 30.581 30.582">
  <path
    id="Path_1168"
    data-name="Path 1168"
    d="M98.487,342.855A15.291,15.291,0,1,1,83.2,327.564a15.291,15.291,0,0,1,15.291,15.291"
    transform="translate(-67.905 -327.564)"
    fill="red"
  />
  <path
    id="Path_1169"
    data-name="Path 1169"
    d="M92.44,342.152a3.672,3.672,0,0,0-3.672-3.672H79.38a3.672,3.672,0,0,0-3.672,3.672v4.369a3.672,3.672,0,0,0,3.672,3.672h9.389a3.672,3.672,0,0,0,3.672-3.672Zm-5.521,2.512-4.21,2.083c-.165.089-.726-.03-.726-.218v-4.276c0-.19.565-.309.73-.215l4.03,2.193c.169.1.347.341.175.433"
    transform="translate(-68.964 -329.045)"
    fill="#fff"
  />
</svg>
