<svg
  xmlns="http://www.w3.org/2000/svg"
  width="13.785"
  height="11.028"
  viewBox="0 0 13.785 11.028"
>
  <g
    id="Group_378"
    data-name="Group 378"
    transform="translate(-2616.132 -1522.253)"
  >
    <path
      id="Path_1726"
      data-name="Path 1726"
      d="M10.239,1215.36a7.52,7.52,0,0,0-6.85,5.276.7.7,0,0,0,0,.476,7.519,7.519,0,0,0,6.85,5.276,7.522,7.522,0,0,0,6.852-5.276.7.7,0,0,0,0-.476A7.52,7.52,0,0,0,10.239,1215.36Zm0,9.65a4.3,4.3,0,1,1,0-8.271,4.3,4.3,0,1,1,0,8.271Z"
      transform="translate(2612.785 306.894)"
      fill="#0c5576"
    />
    <path
      id="Path_1727"
      data-name="Path 1727"
      d="M26.168,1228.74a2.758,2.758,0,1,0,2.758,2.758,2.758,2.758,0,0,0-2.758-2.758Zm0,4.137a1.38,1.38,0,1,1,1.38-1.378A1.38,1.38,0,0,1,26.168,1232.877Z"
      transform="translate(2596.855 296.27)"
      fill="#0c5576"
    />
  </g>
</svg>
