<svg
  xmlns="http://www.w3.org/2000/svg"
  width="15.143"
  height="17.659"
  viewBox="0 0 15.143 17.659"
>
  <g
    id="Group_377"
    data-name="Group 377"
    transform="translate(-2094.774 -1368.78)"
  >
    <path
      id="Path_1724"
      data-name="Path 1724"
      d="M2422.989,49.362a5.877,5.877,0,0,1,4.406,2.1,1.259,1.259,0,1,0,1.885-1.67,8.352,8.352,0,0,0-6.294-2.947h-1.918a8.364,8.364,0,0,0-6.3,2.947,1.262,1.262,0,1,0,1.892,1.67,5.876,5.876,0,0,1,4.406-2.1Z"
      transform="translate(-319.679 1334.555)"
      fill="#0c5576"
    />
    <path
      id="Path_1725"
      data-name="Path 1725"
      d="M2426.233,23.464a5.047,5.047,0,1,0-5.043-5.043A5.047,5.047,0,0,0,2426.233,23.464Zm0-7.568a2.525,2.525,0,1,1-2.521,2.525A2.525,2.525,0,0,1,2426.233,15.9Z"
      transform="translate(-323.877 1355.41)"
      fill="#0c5576"
    />
  </g>
</svg>
