<svg
  xmlns="http://www.w3.org/2000/svg"
  width="14.727"
  height="14.736"
  viewBox="0 0 14.727 14.736"
>
  <g
    id="Group_379"
    data-name="Group 379"
    transform="translate(-2640.645 -1521.028)"
  >
    <path
      id="Path_1728"
      data-name="Path 1728"
      d="M151.721,1208.884a.736.736,0,0,0-1.042,0l-2.359,2.359a7.047,7.047,0,0,0-3.744-1.1c-3.189,0-6.063,2.213-7.325,5.64a.749.749,0,0,0,0,.509,9.268,9.268,0,0,0,2.392,3.636l-2.22,2.22a.737.737,0,1,0,1.042,1.042l2.359-2.359a7.061,7.061,0,0,0,3.744,1.1c3.187,0,6.06-2.213,7.322-5.64a.749.749,0,0,0,0-.509,9.3,9.3,0,0,0-2.4-3.636l2.218-2.22a.736.736,0,0,0,.009-1.042Zm-11.035,9.987a7.677,7.677,0,0,1-1.962-2.836,6.526,6.526,0,0,1,5.842-4.422,5.54,5.54,0,0,1,2.676.7l-1.189,1.189a2.9,2.9,0,0,0-1.486-.418,2.951,2.951,0,0,0-2.949,2.949,2.9,2.9,0,0,0,.418,1.486Zm5.3-3.215a1.528,1.528,0,0,1,.055.379,1.475,1.475,0,0,1-1.473,1.473,1.523,1.523,0,0,1-.379-.055Zm-2.839.755a1.523,1.523,0,0,1-.055-.376,1.478,1.478,0,0,1,1.475-1.475,1.517,1.517,0,0,1,.377.055Zm7.267-.376a6.527,6.527,0,0,1-5.84,4.42,5.546,5.546,0,0,1-2.678-.7l1.189-1.189a2.9,2.9,0,0,0,1.489.418,2.951,2.951,0,0,0,2.94-2.944,2.9,2.9,0,0,0-.418-1.489l1.35-1.35a7.685,7.685,0,0,1,1.967,2.839Z"
      transform="translate(2503.437 312.36)"
      fill="#0c5576"
    />
  </g>
</svg>
