<svg
  xmlns="http://www.w3.org/2000/svg"
  width="31.709"
  height="31.687"
  viewBox="0 0 31.709 31.687"
>
  <path
    id="Path_1720"
    data-name="Path 1720"
    d="M1091.984,408.559a12.708,12.708,0,1,0-4.259,20.809l5.679,5.679a5.02,5.02,0,1,0,7.1-7.1l-5.679-5.679a12.74,12.74,0,0,0-2.839-13.71ZM1088.7,425.2l-.166.123a9.956,9.956,0,0,1-1.2.738h0a9.6,9.6,0,1,1,3.824-3.606c-.1.17-.2.345-.317.511a8.915,8.915,0,0,1-1.1,1.344,8.466,8.466,0,0,1-1.041.89Zm9.526,4.983a1.846,1.846,0,0,1-2.608,2.608l-5.035-5.031.133-.118a11.319,11.319,0,0,0,2.366-2.366c.038-.047.081-.085.114-.128Z"
    transform="translate(-1070.263 -404.829)"
    fill="#0c5576"
  />
  <path
    id="Path_1721"
    data-name="Path 1721"
    d="M1088.4,434.623a4.7,4.7,0,0,1-4.695-4.695v-.052a1.562,1.562,0,0,0-1.585-1.557,1.609,1.609,0,0,0-1.585,1.609,7.875,7.875,0,0,0,7.865,7.865,1.585,1.585,0,0,0,0-3.171Z"
    transform="translate(-1075.671 -417.203)"
    fill="#0c5576"
  />
</svg>
